RobotoAvar2-XOUC2.ufo
<glyph name="B" format="2">
  <advance width="896"/>
  <unicode hex="0042"/>
  <anchor x="434" y="0" name="bottom"/>
  <anchor x="434" y="1456" name="top"/>
  <outline>
    <contour>
      <point x="170" y="0" type="line"/>
      <point x="170" y="1456" type="line"/>
      <point x="469" y="1456" type="line" smooth="yes"/>
      <point x="609" y="1456"/>
      <point x="758" y="1270"/>
      <point x="758" y="1070" type="qcurve" smooth="yes"/>
      <point x="758" y="950"/>
      <point x="652" y="790"/>
      <point x="550" y="768" type="qcurve"/>
      <point x="550" y="764" type="line"/>
      <point x="672" y="747"/>
      <point x="796" y="545"/>
      <point x="796" y="420" type="qcurve" smooth="yes"/>
      <point x="796" y="220"/>
      <point x="673" y="0"/>
      <point x="499" y="0" type="qcurve" smooth="yes"/>
    </contour>
    <contour>
      <point x="177" y="158" type="line"/>
      <point x="499" y="158" type="line" smooth="yes"/>
      <point x="649" y="158"/>
      <point x="789" y="300"/>
      <point x="789" y="420" type="qcurve" smooth="yes"/>
      <point x="789" y="558"/>
      <point x="646" y="680"/>
      <point x="499" y="680" type="qcurve" smooth="yes"/>
      <point x="174" y="680" type="line"/>
      <point x="174" y="836" type="line"/>
      <point x="469" y="836" type="line" smooth="yes"/>
      <point x="617" y="836"/>
      <point x="751" y="933"/>
      <point x="751" y="1070" type="qcurve"/>
      <point x="751" y="1180"/>
      <point x="625" y="1298"/>
      <point x="469" y="1298" type="qcurve" smooth="yes"/>
      <point x="177" y="1298" type="line"/>
    </contour>
  </outline>
</glyph>
<glyph name="D" format="2">
  <advance width="998"/>
  <unicode hex="0044"/>
  <anchor x="478" y="0" name="bottom"/>
  <anchor x="202" y="728" name="center"/>
  <anchor x="444" y="1456" name="top"/>
  <outline>
    <contour>
      <point x="170" y="0" type="line"/>
      <point x="170" y="1456" type="line"/>
      <point x="417" y="1456" type="line" smooth="yes"/>
      <point x="625" y="1456"/>
      <point x="883" y="1086"/>
      <point x="883" y="774" type="qcurve" smooth="yes"/>
      <point x="883" y="682" type="line" smooth="yes"/>
      <point x="883" y="370"/>
      <point x="626" y="0"/>
      <point x="417" y="0" type="qcurve" smooth="yes"/>
    </contour>
    <contour>
      <point x="177" y="158" type="line"/>
      <point x="417" y="158" type="line" smooth="yes"/>
      <point x="625" y="158"/>
      <point x="876" y="436"/>
      <point x="876" y="682" type="qcurve" smooth="yes"/>
      <point x="876" y="774" type="line" smooth="yes"/>
      <point x="876" y="1020"/>
      <point x="625" y="1298"/>
      <point x="417" y="1298" type="qcurve" smooth="yes"/>
      <point x="177" y="1298" type="line"/>
    </contour>
  </outline>
</glyph>
<glyph name="E" format="2">
  <advance width="977"/>
  <unicode hex="0045"/>
  <anchor x="493" y="0" name="bottom"/>
  <anchor x="907" y="0" name="ogonek"/>
  <anchor x="493" y="1456" name="top"/>
  <anchor x="-72" y="1074" name="tonos"/>
  <outline>
    <contour>
      <point x="170" y="0" type="line"/>
      <point x="170" y="1456" type="line"/>
      <point x="899" y="1456" type="line"/>
      <point x="899" y="1298" type="line"/>
      <point x="177" y="1298" type="line"/>
      <point x="177" y="158" type="line"/>
      <point x="909" y="158" type="line"/>
      <point x="909" y="0" type="line"/>
    </contour>
    <contour>
      <point x="174" y="672" type="line"/>
      <point x="174" y="830" type="line"/>
      <point x="807" y="830" type="line"/>
      <point x="807" y="672" type="line"/>
    </contour>
  </outline>
</glyph>
<glyph name="F" format="2">
  <advance width="945"/>
  <unicode hex="0046"/>
  <anchor x="488" y="0" name="bottom"/>
  <anchor x="395" y="1457" name="top"/>
  <outline>
    <contour>
      <point x="170" y="0" type="line"/>
      <point x="170" y="1456" type="line"/>
      <point x="887" y="1456" type="line"/>
      <point x="887" y="1298" type="line"/>
      <point x="177" y="1298" type="line"/>
      <point x="177" y="0" type="line"/>
    </contour>
    <contour>
      <point x="174" y="643" type="line"/>
      <point x="174" y="801" type="line"/>
      <point x="788" y="801" type="line"/>
      <point x="788" y="643" type="line"/>
    </contour>
  </outline>
</glyph>
<glyph name="H" format="2">
  <advance width="1088"/>
  <unicode hex="0048"/>
  <anchor x="732" y="0" name="bottom"/>
  <anchor x="732" y="1100" name="center"/>
  <anchor x="732" y="1456" name="top"/>
  <anchor x="912" y="0" name="cy_descender"/>
  <anchor x="-72" y="1074" name="tonos"/>
  <outline>
    <contour>
      <point x="170" y="0" type="line"/>
      <point x="170" y="1456" type="line"/>
      <point x="177" y="1456" type="line"/>
      <point x="177" y="0" type="line"/>
    </contour>
    <contour>
      <point x="175" y="672" type="line"/>
      <point x="175" y="830" type="line"/>
      <point x="912" y="830" type="line"/>
      <point x="912" y="672" type="line"/>
    </contour>
    <contour>
      <point x="911" y="0" type="line"/>
      <point x="911" y="1456" type="line"/>
      <point x="918" y="1456" type="line"/>
      <point x="918" y="0" type="line"/>
    </contour>
  </outline>
</glyph>
<glyph name="K" format="2">
  <advance width="916"/>
  <unicode hex="004B"/>
  <anchor x="408" y="0" name="bottom"/>
  <anchor x="408" y="1456" name="top"/>
  <outline>
    <contour>
      <point x="170" y="0" type="line"/>
      <point x="170" y="1456" type="line"/>
      <point x="177" y="1456" type="line"/>
      <point x="177" y="0" type="line"/>
    </contour>
    <contour>
      <point x="997" y="0" type="line"/>
      <point x="403" y="783" type="line"/>
      <point x="408" y="788" type="line"/>
      <point x="1006" y="0" type="line"/>
    </contour>
    <contour>
      <point x="173" y="476" type="line"/>
      <point x="173" y="716" type="line"/>
      <point x="835" y="1456" type="line"/>
      <point x="1056" y="1456" type="line"/>
    </contour>
  </outline>
</glyph>
<glyph name="L" format="2">
  <advance width="736"/>
  <unicode hex="004C"/>
  <anchor x="430" y="0" name="bottom"/>
  <anchor x="538" y="728" name="center"/>
  <anchor x="174" y="1456" name="top"/>
  <anchor x="427" y="1052" name="topright"/>
  <outline>
    <contour>
      <point x="170" y="0" type="line"/>
      <point x="170" y="1456" type="line"/>
      <point x="177" y="1456" type="line"/>
      <point x="177" y="158" type="line"/>
      <point x="682" y="158" type="line"/>
      <point x="682" y="0" type="line"/>
    </contour>
  </outline>
</glyph>
<glyph name="N" format="2">
  <advance width="1038"/>
  <unicode hex="004E"/>
  <anchor x="530" y="0" name="bottom"/>
  <anchor x="530" y="1456" name="top"/>
  <anchor x="894" y="0" name="engtail"/>
  <outline>
    <contour>
      <point x="170" y="0" type="line"/>
      <point x="170" y="1456" type="line"/>
      <point x="186" y="1456" type="line"/>
      <point x="802" y="122" type="line" smooth="yes"/>
      <point x="817" y="90"/>
      <point x="844" y="32"/>
      <point x="855" y="7" type="qcurve"/>
      <point x="862" y="7" type="line"/>
      <point x="861" y="37"/>
      <point x="861" y="112"/>
      <point x="861" y="142" type="qcurve" smooth="yes"/>
      <point x="861" y="1456" type="line"/>
      <point x="868" y="1456" type="line"/>
      <point x="868" y="0" type="line"/>
      <point x="851" y="0" type="line"/>
      <point x="235" y="1334" type="line" smooth="yes"/>
      <point x="220" y="1366"/>
      <point x="194" y="1424"/>
      <point x="182" y="1449" type="qcurve"/>
      <point x="175" y="1449" type="line"/>
      <point x="176" y="1419"/>
      <point x="177" y="1344"/>
      <point x="177" y="1314" type="qcurve" smooth="yes"/>
      <point x="177" y="0" type="line"/>
    </contour>
  </outline>
</glyph>
<glyph name="O" format="2">
  <advance width="1086"/>
  <unicode hex="004F"/>
  <anchor x="543" y="0" name="bottom"/>
  <anchor x="543" y="728" name="center"/>
  <anchor x="681" y="0" name="ogonek"/>
  <anchor x="543" y="1456" name="top"/>
  <anchor x="680" y="1456" name="topright"/>
  <anchor x="-3" y="1074" name="tonos"/>
  <anchor x="119" y="750" name="yu_dash"/>
  <outline>
    <contour>
      <point x="115" y="682" type="qcurve" smooth="yes"/>
      <point x="115" y="774" type="line" smooth="yes"/>
      <point x="115" y="1110"/>
      <point x="352" y="1486"/>
      <point x="543" y="1486" type="qcurve" smooth="yes"/>
      <point x="735" y="1486"/>
      <point x="971" y="1110"/>
      <point x="971" y="774" type="qcurve" smooth="yes"/>
      <point x="971" y="682" type="line" smooth="yes"/>
      <point x="971" y="346"/>
      <point x="735" y="-30"/>
      <point x="543" y="-30" type="qcurve" smooth="yes"/>
      <point x="352" y="-30"/>
      <point x="115" y="346"/>
    </contour>
    <contour>
      <point x="122" y="682" type="line" smooth="yes"/>
      <point x="122" y="426"/>
      <point x="353" y="134"/>
      <point x="543" y="134" type="qcurve" smooth="yes"/>
      <point x="733" y="134"/>
      <point x="964" y="426"/>
      <point x="964" y="682" type="qcurve" smooth="yes"/>
      <point x="964" y="774" type="line" smooth="yes"/>
      <point x="964" y="1030"/>
      <point x="733" y="1322"/>
      <point x="543" y="1322" type="qcurve" smooth="yes"/>
      <point x="353" y="1322"/>
      <point x="122" y="1030"/>
      <point x="122" y="774" type="qcurve" smooth="yes"/>
    </contour>
  </outline>
</glyph>
<glyph name="Q" format="2">
  <advance width="1086"/>
  <unicode hex="0051"/>
  <anchor x="543" y="0" name="bottom"/>
  <anchor x="543" y="1456" name="top"/>
  <outline>
    <contour>
      <point x="115" y="682" type="qcurve" smooth="yes"/>
      <point x="115" y="774" type="line" smooth="yes"/>
      <point x="115" y="1110"/>
      <point x="357" y="1486"/>
      <point x="543" y="1486" type="qcurve" smooth="yes"/>
      <point x="730" y="1486"/>
      <point x="971" y="1110"/>
      <point x="971" y="774" type="qcurve" smooth="yes"/>
      <point x="971" y="682" type="line" smooth="yes"/>
      <point x="971" y="346"/>
      <point x="730" y="-30"/>
      <point x="543" y="-30" type="qcurve" smooth="yes"/>
      <point x="357" y="-30"/>
      <point x="115" y="346"/>
    </contour>
    <contour>
      <point x="122" y="682" type="line" smooth="yes"/>
      <point x="122" y="426"/>
      <point x="353" y="134"/>
      <point x="543" y="134" type="qcurve" smooth="yes"/>
      <point x="733" y="134"/>
      <point x="964" y="426"/>
      <point x="964" y="682" type="qcurve" smooth="yes"/>
      <point x="964" y="774" type="line" smooth="yes"/>
      <point x="964" y="1030"/>
      <point x="733" y="1322"/>
      <point x="543" y="1322" type="qcurve" smooth="yes"/>
      <point x="353" y="1322"/>
      <point x="122" y="1030"/>
      <point x="122" y="774" type="qcurve" smooth="yes"/>
    </contour>
    <contour>
      <point x="889" y="-181" type="line"/>
      <point x="618" y="28" type="line"/>
      <point x="622" y="33" type="line"/>
      <point x="893" y="-176" type="line"/>
    </contour>
  </outline>
</glyph>
<glyph name="S" format="2">
  <advance width="852"/>
  <unicode hex="0053"/>
  <anchor x="435" y="0" name="bottom"/>
  <anchor x="425" y="1456" name="top"/>
  <outline>
    <contour>
      <point x="90" y="398" type="qcurve" smooth="yes"/>
      <point x="90" y="410" type="line"/>
      <point x="97" y="410" type="line"/>
      <point x="97" y="398" type="line" smooth="yes"/>
      <point x="97" y="266"/>
      <point x="275" y="134"/>
      <point x="435" y="134" type="qcurve" smooth="yes"/>
      <point x="596" y="134"/>
      <point x="765" y="269"/>
      <point x="765" y="371" type="qcurve" smooth="yes"/>
      <point x="765" y="532"/>
      <point x="603" y="700"/>
      <point x="429" y="752" type="qcurve" smooth="yes"/>
      <point x="248" y="806"/>
      <point x="118" y="980"/>
      <point x="118" y="1090" type="qcurve" smooth="yes"/>
      <point x="118" y="1265"/>
      <point x="270" y="1486"/>
      <point x="425" y="1486" type="qcurve" smooth="yes"/>
      <point x="583" y="1486"/>
      <point x="742" y="1258"/>
      <point x="742" y="1064" type="qcurve" smooth="yes"/>
      <point x="742" y="1052" type="line"/>
      <point x="735" y="1052" type="line"/>
      <point x="735" y="1064" type="line" smooth="yes"/>
      <point x="735" y="1180"/>
      <point x="579" y="1322"/>
      <point x="425" y="1322" type="qcurve" smooth="yes"/>
      <point x="271" y="1322"/>
      <point x="125" y="1200"/>
      <point x="125" y="1095" type="qcurve" smooth="yes"/>
      <point x="125" y="981"/>
      <point x="254" y="811"/>
      <point x="432" y="758" type="qcurve" smooth="yes"/>
      <point x="607" y="706"/>
      <point x="772" y="535"/>
      <point x="772" y="371" type="qcurve" smooth="yes"/>
      <point x="772" y="200"/>
      <point x="598" y="-30"/>
      <point x="435" y="-30" type="qcurve" smooth="yes"/>
      <point x="273" y="-30"/>
      <point x="90" y="201"/>
    </contour>
  </outline>
</glyph>
<glyph name="T" format="2">
  <advance width="986"/>
  <unicode hex="0054"/>
  <anchor x="493" y="0" name="bottom"/>
  <anchor x="493" y="728" name="center"/>
  <anchor x="493" y="1456" name="top"/>
  <anchor x="493" y="0" name="cy_descender"/>
  <outline>
    <contour>
      <point x="491" y="0" type="line"/>
      <point x="491" y="1378" type="line"/>
      <point x="495" y="1378" type="line"/>
      <point x="495" y="0" type="line"/>
    </contour>
    <contour>
      <point x="24" y="1298" type="line"/>
      <point x="24" y="1456" type="line"/>
      <point x="962" y="1456" type="line"/>
      <point x="962" y="1298" type="line"/>
    </contour>
  </outline>
</glyph>
<glyph name="W" format="2">
  <advance width="1564"/>
  <unicode hex="0057"/>
  <anchor x="781" y="0" name="bottom"/>
  <anchor x="781" y="1456" name="top"/>
  <outline>
    <contour>
      <point x="388" y="-10" type="line"/>
      <point x="50" y="1456" type="line"/>
      <point x="57" y="1456" type="line"/>
      <point x="369" y="106" type="line" smooth="yes"/>
      <point x="377" y="72"/>
      <point x="386" y="31"/>
      <point x="393" y="-2" type="qcurve"/>
      <point x="403" y="-2" type="line"/>
      <point x="411" y="32"/>
      <point x="422" y="72"/>
      <point x="431" y="106" type="qcurve" smooth="yes"/>
      <point x="775" y="1456" type="line"/>
      <point x="787" y="1456" type="line"/>
      <point x="1144" y="105" type="line" smooth="yes"/>
      <point x="1153" y="71"/>
      <point x="1164" y="30"/>
      <point x="1172" y="-3" type="qcurve"/>
      <point x="1181" y="-3" type="line"/>
      <point x="1188" y="30"/>
      <point x="1198" y="71"/>
      <point x="1206" y="105" type="qcurve" smooth="yes"/>
      <point x="1507" y="1456" type="line"/>
      <point x="1514" y="1456" type="line"/>
      <point x="1187" y="-10" type="line"/>
      <point x="1167" y="-10" type="line"/>
      <point x="816" y="1321" type="line" smooth="yes"/>
      <point x="807" y="1355"/>
      <point x="791" y="1416"/>
      <point x="785" y="1449" type="qcurve"/>
      <point x="777" y="1449" type="line"/>
      <point x="771" y="1416"/>
      <point x="756" y="1355"/>
      <point x="747" y="1321" type="qcurve" smooth="yes"/>
      <point x="408" y="-10" type="line"/>
    </contour>
  </outline>
</glyph>
<glyph name="Z" format="2">
  <advance width="988"/>
  <unicode hex="005A"/>
  <anchor x="463" y="0" name="bottom"/>
  <anchor x="494" y="1456" name="top"/>
  <outline>
    <contour>
      <point x="65" y="0" type="line"/>
      <point x="65" y="138" type="line"/>
      <point x="866" y="1298" type="line"/>
      <point x="87" y="1298" type="line"/>
      <point x="87" y="1456" type="line"/>
      <point x="890" y="1456" type="line"/>
      <point x="890" y="1316" type="line"/>
      <point x="89" y="158" type="line"/>
      <point x="922" y="158" type="line"/>
      <point x="922" y="0" type="line"/>
    </contour>
  </outline>
</glyph>
<glyph name="AE" format="2">
  <advance width="1664"/>
  <unicode hex="00C6"/>
  <anchor x="931" y="1456" name="top"/>
  <outline>
    <contour>
      <point x="-15" y="0" type="line"/>
      <point x="866" y="1456" type="line"/>
      <point x="1586" y="1456" type="line"/>
      <point x="1586" y="1298" type="line"/>
      <point x="872" y="1298" type="line"/>
      <point x="872" y="158" type="line"/>
      <point x="1596" y="158" type="line"/>
      <point x="1596" y="0" type="line"/>
      <point x="868" y="0" type="line"/>
      <point x="868" y="1452" type="line"/>
      <point x="-10" y="0" type="line"/>
    </contour>
    <contour>
      <point x="870" y="672" type="line"/>
      <point x="870" y="830" type="line"/>
      <point x="1494" y="830" type="line"/>
      <point x="1494" y="672" type="line"/>
    </contour>
    <contour>
      <point x="201" y="353" type="line"/>
      <point x="307" y="528" type="line"/>
      <point x="870" y="528" type="line"/>
      <point x="870" y="353" type="line"/>
    </contour>
  </outline>
</glyph>
<glyph name="Thorn" format="2">
  <advance width="814"/>
  <unicode hex="00DE"/>
  <guideline x="0" y="901" angle="0" identifier="i9jYwjBDP4"/>
  <guideline x="0" y="555" angle="0" identifier="T8KKW8oxop"/>
  <outline>
    <contour>
      <point x="170" y="0" type="line"/>
      <point x="170" y="1456" type="line"/>
      <point x="177" y="1456" type="line"/>
      <point x="177" y="0" type="line"/>
    </contour>
    <contour>
      <point x="175" y="315" type="line"/>
      <point x="175" y="465" type="line"/>
      <point x="455" y="465" type="line" smooth="yes"/>
      <point x="615" y="465"/>
      <point x="757" y="604"/>
      <point x="757" y="738" type="qcurve" smooth="yes"/>
      <point x="757" y="868"/>
      <point x="615" y="1012"/>
      <point x="455" y="1012" type="qcurve" smooth="yes"/>
      <point x="175" y="1012" type="line"/>
      <point x="175" y="1163" type="line"/>
      <point x="422" y="1163" type="line" smooth="yes"/>
      <point x="586" y="1163"/>
      <point x="764" y="936"/>
      <point x="764" y="738" type="qcurve" smooth="yes"/>
      <point x="764" y="542"/>
      <point x="586" y="315"/>
      <point x="422" y="315" type="qcurve" smooth="yes"/>
    </contour>
  </outline>
</glyph>
<glyph name="OE" format="2">
  <advance width="1502"/>
  <unicode hex="0152"/>
  <outline>
    <contour>
      <point x="549" y="-21" type="qcurve" smooth="yes"/>
      <point x="384" y="-21"/>
      <point x="115" y="366"/>
      <point x="115" y="732" type="qcurve" smooth="yes"/>
      <point x="115" y="743" type="line" smooth="yes"/>
      <point x="115" y="1090"/>
      <point x="382" y="1477"/>
      <point x="581" y="1477" type="qcurve" smooth="yes"/>
      <point x="607" y="1477"/>
      <point x="724" y="1464"/>
      <point x="776" y="1456" type="qcurve"/>
      <point x="1424" y="1456" type="line"/>
      <point x="1424" y="1298" type="line"/>
      <point x="705" y="1298" type="line"/>
      <point x="705" y="157" type="line"/>
      <point x="1434" y="157" type="line"/>
      <point x="1434" y="0" type="line"/>
      <point x="776" y="0" type="line"/>
      <point x="724" y="-7"/>
      <point x="608" y="-21"/>
    </contour>
    <contour>
      <point x="527" y="128" type="qcurve" smooth="yes"/>
      <point x="580" y="128"/>
      <point x="660" y="137"/>
      <point x="698" y="143" type="qcurve"/>
      <point x="698" y="1310" type="line"/>
      <point x="646" y="1317"/>
      <point x="551" y="1325"/>
      <point x="529" y="1325" type="qcurve" smooth="yes"/>
      <point x="352" y="1325"/>
      <point x="122" y="1018"/>
      <point x="122" y="752" type="qcurve" smooth="yes"/>
      <point x="122" y="715" type="line" smooth="yes"/>
      <point x="122" y="435"/>
      <point x="355" y="128"/>
    </contour>
    <contour>
      <point x="701" y="673" type="line"/>
      <point x="701" y="830" type="line"/>
      <point x="1332" y="830" type="line"/>
      <point x="1332" y="673" type="line"/>
    </contour>
  </outline>
</glyph>
<glyph name="Schwa" format="2">
  <advance width="1064"/>
  <unicode hex="018F"/>
  <outline>
    <contour>
      <point x="513" y="-30" type="qcurve" smooth="yes"/>
      <point x="334" y="-30"/>
      <point x="102" y="311"/>
      <point x="102" y="567" type="qcurve" smooth="yes"/>
      <point x="102" y="784" type="line"/>
      <point x="944" y="784" type="line"/>
      <point x="944" y="622" type="line"/>
      <point x="540" y="627" type="line"/>
      <point x="109" y="624" type="line"/>
      <point x="109" y="567" type="line" smooth="yes"/>
      <point x="109" y="353"/>
      <point x="334" y="129"/>
      <point x="513" y="129" type="qcurve" smooth="yes"/>
      <point x="711" y="129"/>
      <point x="942" y="462"/>
      <point x="942" y="749" type="qcurve" smooth="yes"/>
      <point x="942" y="1056"/>
      <point x="689" y="1316"/>
      <point x="503" y="1316" type="qcurve" smooth="yes"/>
      <point x="337" y="1316"/>
      <point x="137" y="1125"/>
      <point x="117" y="982" type="qcurve" smooth="yes"/>
      <point x="115" y="968" type="line"/>
      <point x="108" y="968" type="line"/>
      <point x="110" y="982" type="line" smooth="yes"/>
      <point x="143" y="1212"/>
      <point x="339" y="1489"/>
      <point x="503" y="1489" type="qcurve" smooth="yes"/>
      <point x="693" y="1489"/>
      <point x="949" y="1128"/>
      <point x="949" y="749" type="qcurve" smooth="yes"/>
      <point x="949" y="384"/>
      <point x="706" y="-30"/>
    </contour>
  </outline>
</glyph>
<glyph name="Theta" format="2">
  <advance width="1080"/>
  <unicode hex="0398"/>
  <outline>
    <contour>
      <point x="540" y="-30" type="qcurve" smooth="yes"/>
      <point x="357" y="-30"/>
      <point x="115" y="346"/>
      <point x="115" y="682" type="qcurve" smooth="yes"/>
      <point x="115" y="774" type="line" smooth="yes"/>
      <point x="115" y="1110"/>
      <point x="357" y="1486"/>
      <point x="540" y="1486" type="qcurve" smooth="yes"/>
      <point x="723" y="1486"/>
      <point x="965" y="1110"/>
      <point x="965" y="774" type="qcurve" smooth="yes"/>
      <point x="965" y="682" type="line" smooth="yes"/>
      <point x="965" y="346"/>
      <point x="723" y="-30"/>
    </contour>
    <contour>
      <point x="540" y="134" type="qcurve" smooth="yes"/>
      <point x="730" y="134"/>
      <point x="961" y="426"/>
      <point x="961" y="682" type="qcurve" smooth="yes"/>
      <point x="961" y="774" type="line" smooth="yes"/>
      <point x="961" y="1030"/>
      <point x="730" y="1322"/>
      <point x="540" y="1322" type="qcurve" smooth="yes"/>
      <point x="350" y="1322"/>
      <point x="119" y="1030"/>
      <point x="119" y="774" type="qcurve" smooth="yes"/>
      <point x="119" y="682" type="line" smooth="yes"/>
      <point x="119" y="426"/>
      <point x="350" y="134"/>
    </contour>
    <contour>
      <point x="278" y="659" type="line"/>
      <point x="278" y="827" type="line"/>
      <point x="802" y="827" type="line"/>
      <point x="802" y="659" type="line"/>
    </contour>
  </outline>
</glyph>
<glyph name="Sigma" format="2">
  <advance width="1010"/>
  <unicode hex="03A3"/>
  <outline>
    <contour>
      <point x="65" y="0" type="line"/>
      <point x="65" y="121" type="line"/>
      <point x="554" y="724" type="line"/>
      <point x="554" y="724" type="line"/>
      <point x="77" y="1304" type="line"/>
      <point x="77" y="1456" type="line"/>
      <point x="912" y="1456" type="line"/>
      <point x="912" y="1299" type="line"/>
      <point x="86" y="1299" type="line"/>
      <point x="86" y="1299" type="line"/>
      <point x="556" y="726" type="line"/>
      <point x="556" y="720" type="line"/>
      <point x="100" y="158" type="line"/>
      <point x="100" y="158" type="line"/>
      <point x="944" y="158" type="line"/>
      <point x="944" y="0" type="line"/>
    </contour>
  </outline>
</glyph>
<glyph name="Phi" format="2">
  <advance width="1202"/>
  <unicode hex="03A6"/>
  <outline>
    <contour>
      <point x="599" y="-20" type="line"/>
      <point x="599" y="242" type="line"/>
      <point x="599" y="285" type="line"/>
      <point x="599" y="1192" type="line"/>
      <point x="599" y="1228" type="line"/>
      <point x="599" y="1476" type="line"/>
      <point x="603" y="1476" type="line"/>
      <point x="603" y="1228" type="line"/>
      <point x="603" y="1192" type="line"/>
      <point x="603" y="285" type="line"/>
      <point x="603" y="242" type="line"/>
      <point x="603" y="-20" type="line"/>
    </contour>
    <contour>
      <point x="571" y="194" type="line" smooth="yes"/>
      <point x="342" y="194"/>
      <point x="105" y="500"/>
      <point x="105" y="741" type="qcurve" smooth="yes"/>
      <point x="105" y="992"/>
      <point x="342" y="1283"/>
      <point x="571" y="1283" type="qcurve" smooth="yes"/>
      <point x="631" y="1283" type="line" smooth="yes"/>
      <point x="860" y="1283"/>
      <point x="1097" y="991"/>
      <point x="1097" y="738" type="qcurve" smooth="yes"/>
      <point x="1097" y="485"/>
      <point x="860" y="194"/>
      <point x="631" y="194" type="qcurve" smooth="yes"/>
    </contour>
    <contour>
      <point x="571" y="345" type="qcurve" smooth="yes"/>
      <point x="631" y="345" type="line" smooth="yes"/>
      <point x="882" y="345"/>
      <point x="1093" y="545"/>
      <point x="1093" y="738" type="qcurve" smooth="yes"/>
      <point x="1093" y="925"/>
      <point x="882" y="1132"/>
      <point x="631" y="1132" type="qcurve" smooth="yes"/>
      <point x="571" y="1132" type="line" smooth="yes"/>
      <point x="320" y="1132"/>
      <point x="109" y="932"/>
      <point x="109" y="741" type="qcurve" smooth="yes"/>
      <point x="109" y="552"/>
      <point x="320" y="345"/>
    </contour>
  </outline>
</glyph>
<glyph name="Psi" format="2">
  <advance width="1155"/>
  <unicode hex="03A8"/>
  <outline>
    <contour>
      <point x="576.009708737864" y="0" type="line"/>
      <point x="576.009708737864" y="1456" type="line"/>
      <point x="583.009708737864" y="1456" type="line"/>
      <point x="583.009708737864" y="0" type="line"/>
    </contour>
    <contour>
      <point x="577.009708737864" y="361" type="line"/>
      <point x="358.00970873786406" y="361"/>
      <point x="154.00970873786406" y="635"/>
      <point x="155.00970873786406" y="928" type="qcurve" smooth="yes"/>
      <point x="155.00970873786406" y="1456" type="line"/>
      <point x="162.00970873786406" y="1456" type="line"/>
      <point x="162.00970873786406" y="926" type="line" smooth="yes"/>
      <point x="162.00970873786406" y="711"/>
      <point x="347.00970873786406" y="519"/>
      <point x="577.009708737864" y="519" type="qcurve"/>
      <point x="579.009708737864" y="519" type="line"/>
      <point x="810.009708737864" y="519"/>
      <point x="997.009708737864" y="711"/>
      <point x="993.009708737864" y="926" type="qcurve" smooth="yes"/>
      <point x="993.009708737864" y="1456" type="line"/>
      <point x="1000.009708737864" y="1456" type="line"/>
      <point x="1000.009708737864" y="928" type="line" smooth="yes"/>
      <point x="1000.009708737864" y="635"/>
      <point x="807.009708737864" y="361"/>
      <point x="579.009708737864" y="361" type="qcurve"/>
    </contour>
  </outline>
</glyph>
<glyph name="Omega" format="2">
  <advance width="1123"/>
  <unicode hex="03A9"/>
  <anchor x="-3" y="1074" name="tonos"/>
  <outline>
    <contour>
      <point x="115" y="0" type="line"/>
      <point x="115" y="159" type="line"/>
      <point x="434" y="159" type="line"/>
      <point x="434" y="309" type="line"/>
      <point x="288" y="374"/>
      <point x="115" y="639"/>
      <point x="115" y="857" type="qcurve"/>
      <point x="115" y="870" type="line"/>
      <point x="115" y="1160"/>
      <point x="366" y="1486"/>
      <point x="552" y="1486" type="qcurve" smooth="yes"/>
      <point x="738" y="1486"/>
      <point x="989" y="1158"/>
      <point x="989" y="869" type="qcurve"/>
      <point x="989" y="858" type="line"/>
      <point x="989" y="641"/>
      <point x="834" y="373"/>
      <point x="688" y="309" type="qcurve"/>
      <point x="688" y="159" type="line"/>
      <point x="1008" y="159" type="line"/>
      <point x="1008" y="0" type="line"/>
      <point x="681" y="0" type="line"/>
      <point x="681" y="437" type="line"/>
      <point x="840" y="469"/>
      <point x="982" y="694"/>
      <point x="982" y="851" type="qcurve"/>
      <point x="982" y="879" type="line"/>
      <point x="982" y="1089"/>
      <point x="753" y="1322"/>
      <point x="552" y="1322" type="qcurve"/>
      <point x="351" y="1322"/>
      <point x="122" y="1089"/>
      <point x="122" y="879" type="qcurve"/>
      <point x="122" y="848" type="line"/>
      <point x="122" y="694"/>
      <point x="282" y="469"/>
      <point x="441" y="437" type="qcurve"/>
      <point x="441" y="0" type="line"/>
    </contour>
  </outline>
</glyph>
<glyph name="Kaisymbol" format="2">
  <advance width="841"/>
  <unicode hex="03CF"/>
  <outline>
    <contour>
      <point x="170" y="0" type="line"/>
      <point x="170" y="1456" type="line"/>
      <point x="177" y="1456" type="line"/>
      <point x="177" y="0" type="line"/>
    </contour>
    <contour>
      <point x="174" y="596" type="line"/>
      <point x="174" y="606" type="line"/>
      <point x="826" y="1456" type="line"/>
      <point x="835" y="1456" type="line"/>
      <point x="416" y="912" type="line"/>
    </contour>
    <contour>
      <point x="844" y="31" type="line"/>
      <point x="409" y="912" type="line"/>
      <point x="414" y="916" type="line"/>
      <point x="853" y="29" type="line"/>
      <point x="288" y="-419" type="line"/>
      <point x="283" y="-413" type="line"/>
    </contour>
  </outline>
</glyph>
<glyph name="De" format="2">
  <advance width="1108"/>
  <unicode hex="0414"/>
  <outline>
    <contour>
      <point x="906" y="-290" type="line"/>
      <point x="906" y="0" type="line"/>
      <point x="182" y="0" type="line"/>
      <point x="182" y="-290" type="line"/>
      <point x="10" y="-290" type="line"/>
      <point x="10" y="158" type="line"/>
      <point x="1078" y="158" type="line"/>
      <point x="1078" y="-290" type="line"/>
    </contour>
    <contour>
      <point x="307" y="1456" type="line"/>
      <point x="901" y="1456" type="line"/>
      <point x="901" y="79" type="line"/>
      <point x="894" y="79" type="line"/>
      <point x="894" y="1298" type="line"/>
      <point x="303" y="1298" type="line"/>
      <point x="262" y="659" type="line" smooth="yes"/>
      <point x="249" y="453"/>
      <point x="199" y="209"/>
      <point x="150" y="79" type="qcurve"/>
      <point x="143" y="79" type="line"/>
      <point x="191" y="205"/>
      <point x="242" y="458"/>
      <point x="255" y="658" type="qcurve" smooth="yes"/>
    </contour>
  </outline>
</glyph>
<glyph name="Zhe" format="2">
  <advance width="1530"/>
  <unicode hex="0416"/>
  <anchor x="767" y="1456" name="top"/>
  <anchor x="1368" y="0" name="cy_descender"/>
  <outline>
    <contour>
      <point x="764" y="0" type="line"/>
      <point x="764" y="1456" type="line"/>
      <point x="771" y="1456" type="line"/>
      <point x="771" y="0" type="line"/>
    </contour>
    <contour>
      <point x="1446" y="0" type="line"/>
      <point x="908" y="740" type="line"/>
      <point x="855" y="823" type="line"/>
      <point x="1454" y="0" type="line"/>
    </contour>
    <contour>
      <point x="766" y="830" type="line"/>
      <point x="876" y="830" type="line"/>
      <point x="1333" y="1456" type="line"/>
      <point x="1550" y="1456" type="line"/>
      <point x="960" y="673" type="line"/>
      <point x="766" y="673" type="line"/>
    </contour>
    <contour>
      <point x="80" y="0" type="line"/>
      <point x="678" y="823" type="line"/>
      <point x="626" y="740" type="line"/>
      <point x="88" y="0" type="line"/>
    </contour>
    <contour>
      <point x="766" y="830" type="line"/>
      <point x="766" y="673" type="line"/>
      <point x="569" y="673" type="line"/>
      <point x="-20" y="1456" type="line"/>
      <point x="199" y="1456" type="line"/>
      <point x="656" y="830" type="line"/>
    </contour>
  </outline>
</glyph>
<glyph name="Ka" format="2">
  <advance width="1105"/>
  <unicode hex="041A"/>
  <guideline x="480" y="796" angle="90.0" identifier="LxfLwWU0sJ"/>
  <anchor x="565" y="1456" name="top"/>
  <anchor x="1079" y="0" name="cy_descender"/>
  <outline>
    <contour>
      <point x="1077" y="0" type="line"/>
      <point x="380" y="808" type="line"/>
      <point x="386" y="811" type="line"/>
      <point x="1085" y="0" type="line"/>
    </contour>
    <contour>
      <point x="175" y="830" type="line"/>
      <point x="295" y="830" type="line"/>
      <point x="840" y="1456" type="line"/>
      <point x="1057" y="1456" type="line"/>
      <point x="373" y="672" type="line"/>
      <point x="175" y="672" type="line"/>
    </contour>
    <contour>
      <point x="170" y="0" type="line"/>
      <point x="170" y="1456" type="line"/>
      <point x="177" y="1456" type="line"/>
      <point x="177" y="0" type="line"/>
    </contour>
  </outline>
</glyph>
<glyph name="Ucyr" format="2">
  <advance width="1178"/>
  <unicode hex="0423"/>
  <anchor x="610" y="1456" name="top"/>
  <outline>
    <contour>
      <point x="92" y="156" type="line"/>
      <point x="118" y="148"/>
      <point x="182" y="138"/>
      <point x="212" y="138" type="qcurve" smooth="yes"/>
      <point x="308" y="138"/>
      <point x="584" y="187"/>
      <point x="611" y="241" type="qcurve"/>
      <point x="611" y="241" type="line"/>
      <point x="15" y="1456" type="line"/>
      <point x="22" y="1456" type="line"/>
      <point x="544" y="395" type="line" smooth="yes"/>
      <point x="570" y="343"/>
      <point x="597" y="285"/>
      <point x="614" y="249" type="qcurve"/>
      <point x="620" y="249" type="line"/>
      <point x="637" y="285"/>
      <point x="665" y="343"/>
      <point x="688" y="395" type="qcurve" smooth="yes"/>
      <point x="1156" y="1456" type="line"/>
      <point x="1163" y="1456" type="line"/>
      <point x="695" y="393" type="line" smooth="yes"/>
      <point x="585" y="143"/>
      <point x="389" y="-30"/>
      <point x="241" y="-30" type="qcurve" smooth="yes"/>
      <point x="182" y="-30"/>
      <point x="120" y="-20"/>
      <point x="92" y="-10" type="qcurve"/>
    </contour>
  </outline>
</glyph>
<glyph name="Che" format="2">
  <advance width="1018"/>
  <unicode hex="0427"/>
  <guideline x="1123" y="741" angle="90.0" identifier="nfCxFSb4p1"/>
  <anchor x="845" y="0" name="cy_descender"/>
  <outline>
    <contour>
      <point x="147" y="1032" type="line" smooth="yes"/>
      <point x="147" y="854"/>
      <point x="263.0085836909871" y="734"/>
      <point x="461.0085836909871" y="734" type="qcurve" smooth="yes"/>
      <point x="580.008583690987" y="734"/>
      <point x="743" y="754"/>
      <point x="845" y="775" type="qcurve"/>
      <point x="845" y="617" type="line"/>
      <point x="709" y="595"/>
      <point x="571.008583690987" y="576"/>
      <point x="446.0085836909871" y="576" type="qcurve" smooth="yes"/>
      <point x="264" y="576"/>
      <point x="140" y="807"/>
      <point x="140" y="1035" type="qcurve" smooth="yes"/>
      <point x="140" y="1456" type="line"/>
      <point x="147" y="1456" type="line"/>
    </contour>
    <contour>
      <point x="848" y="1456" type="line"/>
      <point x="848" y="0" type="line"/>
      <point x="841" y="0" type="line"/>
      <point x="841" y="1456" type="line"/>
    </contour>
  </outline>
</glyph>
<glyph name="Ecyr" format="2">
  <advance width="987"/>
  <unicode hex="042D"/>
  <guideline x="1147" y="753" angle="90.0" identifier="Ovo68woMtl"/>
  <anchor x="474" y="1456" name="top"/>
  <outline>
    <contour>
      <point x="867" y="830" type="line"/>
      <point x="867" y="672" type="line"/>
      <point x="238" y="672" type="line"/>
      <point x="238" y="830" type="line"/>
    </contour>
    <contour>
      <point x="864" y="674" type="qcurve" smooth="yes"/>
      <point x="864" y="797" type="line" smooth="yes"/>
      <point x="864" y="1062"/>
      <point x="653" y="1322"/>
      <point x="458" y="1322" type="qcurve" smooth="yes"/>
      <point x="291" y="1322"/>
      <point x="91" y="1142"/>
      <point x="91" y="1000" type="qcurve" smooth="yes"/>
      <point x="91" y="990" type="line"/>
      <point x="84" y="990" type="line"/>
      <point x="84" y="1000" type="line" smooth="yes"/>
      <point x="84" y="1215"/>
      <point x="287" y="1486"/>
      <point x="458" y="1486" type="qcurve" smooth="yes"/>
      <point x="667" y="1486"/>
      <point x="871" y="1110"/>
      <point x="871" y="774" type="qcurve" smooth="yes"/>
      <point x="871" y="682" type="line" smooth="yes"/>
      <point x="871" y="346"/>
      <point x="657" y="-30"/>
      <point x="482" y="-30" type="qcurve" smooth="yes"/>
      <point x="307" y="-30"/>
      <point x="105" y="258"/>
      <point x="85" y="456" type="qcurve"/>
      <point x="84" y="466" type="line"/>
      <point x="91" y="466" type="line"/>
      <point x="92" y="456" type="line"/>
      <point x="109" y="327"/>
      <point x="302" y="134"/>
      <point x="482" y="134" type="qcurve" smooth="yes"/>
      <point x="654" y="134"/>
      <point x="864" y="431"/>
    </contour>
  </outline>
</glyph>
<glyph name="Ya" format="2">
  <advance width="880"/>
  <unicode hex="042F"/>
  <anchor x="377" y="1456" name="top"/>
  <outline>
    <contour>
      <point x="55" y="0" type="line"/>
      <point x="412" y="672" type="line"/>
      <point x="419" y="671" type="line"/>
      <point x="62" y="0" type="line"/>
    </contour>
    <contour>
      <point x="703" y="0" type="line"/>
      <point x="703" y="1300" type="line"/>
      <point x="421" y="1300" type="line" smooth="yes"/>
      <point x="255" y="1300"/>
      <point x="125" y="1144"/>
      <point x="125" y="1028" type="qcurve" smooth="yes"/>
      <point x="125" y="912"/>
      <point x="255" y="750"/>
      <point x="421" y="750" type="qcurve" smooth="yes"/>
      <point x="705" y="750" type="line"/>
      <point x="705" y="594" type="line"/>
      <point x="378" y="594" type="line"/>
      <point x="373" y="604" type="line"/>
      <point x="255" y="629"/>
      <point x="118" y="858"/>
      <point x="118" y="1028" type="qcurve" smooth="yes"/>
      <point x="118" y="1222"/>
      <point x="255" y="1456"/>
      <point x="421" y="1456" type="qcurve" smooth="yes"/>
      <point x="710" y="1456" type="line"/>
      <point x="710" y="0" type="line"/>
    </contour>
  </outline>
</glyph>
<glyph name="Kaverticalstrokecyr" format="2">
  <advance width="908"/>
  <unicode hex="049C"/>
  <guideline x="637" y="675" angle="90.0" identifier="5CJVZV5P4J"/>
  <outline>
    <contour>
      <point x="170" y="0" type="line"/>
      <point x="170" y="1456" type="line"/>
      <point x="177" y="1456" type="line"/>
      <point x="177" y="0" type="line"/>
    </contour>
    <contour>
      <point x="920" y="0" type="line"/>
      <point x="397" y="756" type="line"/>
      <point x="403" y="760" type="line"/>
      <point x="928" y="0" type="line"/>
    </contour>
    <contour>
      <point x="370" y="760" type="line"/>
      <point x="398" y="760" type="line"/>
      <point x="895" y="1456" type="line"/>
      <point x="902" y="1456" type="line"/>
      <point x="401" y="753" type="line"/>
      <point x="370" y="753" type="line"/>
    </contour>
    <contour>
      <point x="367" y="300" type="line"/>
      <point x="367" y="1156" type="line"/>
      <point x="374" y="1156" type="line"/>
      <point x="374" y="300" type="line"/>
    </contour>
  </outline>
</glyph>
<glyph name="Kabashkircyr" format="2">
  <advance width="1495"/>
  <unicode hex="04A0"/>
  <outline>
    <contour>
      <point x="1394" y="0" type="line"/>
      <point x="766" y="740" type="line"/>
      <point x="769" y="742" type="line"/>
      <point x="1402" y="0" type="line"/>
    </contour>
    <contour>
      <point x="589" y="830" type="line"/>
      <point x="709" y="830" type="line"/>
      <point x="1254" y="1456" type="line"/>
      <point x="1471" y="1456" type="line"/>
      <point x="787" y="672" type="line"/>
      <point x="589" y="672" type="line"/>
    </contour>
    <contour>
      <point x="587" y="0" type="line"/>
      <point x="587" y="1298" type="line"/>
      <point x="212" y="1298" type="line"/>
      <point x="212" y="1456" type="line"/>
      <point x="591" y="1456" type="line"/>
      <point x="591" y="0" type="line"/>
    </contour>
  </outline>
</glyph>
<glyph name="Cheverticalstroke-cy" format="2">
  <advance width="1018"/>
  <unicode hex="04B8"/>
  <outline>
    <contour>
      <point x="581" y="1106" type="line"/>
      <point x="581" y="250" type="line"/>
      <point x="411" y="250" type="line"/>
      <point x="411" y="1106" type="line"/>
    </contour>
    <contour>
      <point x="147" y="1032" type="line" smooth="yes"/>
      <point x="147" y="854"/>
      <point x="263" y="734"/>
      <point x="461" y="734" type="qcurve" smooth="yes"/>
      <point x="580" y="734"/>
      <point x="743" y="754"/>
      <point x="843" y="775" type="qcurve"/>
      <point x="843" y="617" type="line"/>
      <point x="709" y="595"/>
      <point x="571" y="576"/>
      <point x="446" y="576" type="qcurve" smooth="yes"/>
      <point x="264" y="576"/>
      <point x="141" y="807"/>
      <point x="140" y="1035" type="qcurve" smooth="yes"/>
      <point x="140" y="1456" type="line"/>
      <point x="147" y="1456" type="line"/>
    </contour>
    <contour>
      <point x="848" y="1456" type="line"/>
      <point x="848" y="0" type="line"/>
      <point x="841" y="0" type="line"/>
      <point x="841" y="1456" type="line"/>
    </contour>
  </outline>
</glyph>
<glyph name="Germandbls" format="2">
  <advance width="1068"/>
  <unicode hex="1E9E"/>
  <outline>
    <contour>
      <point x="175" y="1066" type="line" smooth="yes"/>
      <point x="175" y="1267"/>
      <point x="344" y="1509"/>
      <point x="487" y="1511" type="qcurve" smooth="yes"/>
      <point x="657" y="1513"/>
      <point x="828" y="1343"/>
      <point x="828" y="1240" type="qcurve" smooth="yes"/>
      <point x="828" y="1138"/>
      <point x="714" y="1013"/>
      <point x="625" y="934" type="qcurve" smooth="yes"/>
      <point x="577" y="891"/>
      <point x="471" y="812"/>
      <point x="471" y="792" type="qcurve" smooth="yes"/>
      <point x="471" y="772"/>
      <point x="512" y="740"/>
      <point x="648" y="689" type="qcurve" smooth="yes"/>
      <point x="842" y="616"/>
      <point x="988" y="474"/>
      <point x="988" y="331" type="qcurve" smooth="yes"/>
      <point x="988" y="188"/>
      <point x="848" y="-30"/>
      <point x="707" y="-30" type="qcurve" smooth="yes"/>
      <point x="553" y="-30"/>
      <point x="376" y="137"/>
      <point x="376" y="337" type="qcurve" smooth="yes"/>
      <point x="376" y="350" type="line"/>
      <point x="383" y="350" type="line"/>
      <point x="383" y="337" type="line" smooth="yes"/>
      <point x="383" y="231"/>
      <point x="563" y="135"/>
      <point x="705" y="135" type="qcurve" smooth="yes"/>
      <point x="820" y="135"/>
      <point x="981" y="227"/>
      <point x="981" y="330" type="qcurve" smooth="yes"/>
      <point x="981" y="469"/>
      <point x="844" y="610"/>
      <point x="647" y="683" type="qcurve" smooth="yes"/>
      <point x="418" y="770"/>
      <point x="335" y="829"/>
      <point x="336" y="861" type="qcurve" smooth="yes"/>
      <point x="337" y="903"/>
      <point x="410" y="988"/>
      <point x="504" y="1056" type="qcurve" smooth="yes"/>
      <point x="574" y="1106"/>
      <point x="636" y="1172"/>
      <point x="636" y="1229" type="qcurve" smooth="yes"/>
      <point x="636" y="1284"/>
      <point x="534" y="1348"/>
      <point x="429" y="1348" type="qcurve" smooth="yes"/>
      <point x="308" y="1348"/>
      <point x="182" y="1198"/>
      <point x="182" y="1036" type="qcurve" smooth="yes"/>
      <point x="182" y="315" type="line" smooth="yes"/>
      <point x="182" y="144"/>
      <point x="127" y="-16"/>
      <point x="68" y="-16" type="qcurve" smooth="yes"/>
      <point x="55" y="-16"/>
      <point x="28" y="-14"/>
      <point x="15" y="-12" type="qcurve"/>
      <point x="13" y="172" type="line"/>
      <point x="22" y="169"/>
      <point x="41" y="167"/>
      <point x="50" y="167" type="qcurve" smooth="yes"/>
      <point x="110" y="167"/>
      <point x="175" y="264"/>
      <point x="175" y="355" type="qcurve" smooth="yes"/>
    </contour>
  </outline>
</glyph>
<glyph name="De.bgr" format="2">
  <advance width="1045"/>
  <outline>
    <contour>
      <point x="10" y="-290" type="line"/>
      <point x="10" y="158" type="line"/>
      <point x="1035" y="158" type="line"/>
      <point x="1035" y="-290" type="line"/>
      <point x="1028" y="-290" type="line"/>
      <point x="1028" y="0" type="line"/>
      <point x="17" y="0" type="line"/>
      <point x="17" y="-290" type="line"/>
    </contour>
    <contour>
      <point x="121" y="78" type="line"/>
      <point x="522" y="1466" type="line"/>
      <point x="536" y="1466" type="line"/>
      <point x="923" y="79" type="line"/>
      <point x="916" y="79" type="line"/>
      <point x="568" y="1332" type="line" smooth="yes"/>
      <point x="558" y="1368"/>
      <point x="541" y="1429"/>
      <point x="533" y="1459" type="qcurve"/>
      <point x="525" y="1459" type="line"/>
      <point x="517" y="1429"/>
      <point x="499" y="1365"/>
      <point x="489" y="1331" type="qcurve" smooth="yes"/>
      <point x="128" y="78" type="line"/>
    </contour>
  </outline>
</glyph>
<glyph name="Hacyr-stroke" format="2">
  <advance width="793"/>
  <outline>
    <contour>
      <point x="91" y="824" type="line"/>
      <point x="703" y="824" type="line"/>
      <point x="703" y="658" type="line"/>
      <point x="91" y="658" type="line"/>
    </contour>
  </outline>
</glyph>
<glyph name="Tse" format="2">
  <advance width="1102"/>
  <outline>
    <contour>
      <point x="900" y="-290" type="line"/>
      <point x="900" y="0" type="line"/>
      <point x="170" y="0" type="line"/>
      <point x="170" y="1456" type="line"/>
      <point x="174" y="1456" type="line"/>
      <point x="174" y="158" type="line"/>
      <point x="888" y="158" type="line"/>
      <point x="888" y="1456" type="line"/>
      <point x="892" y="1456" type="line"/>
      <point x="892" y="158" type="line"/>
      <point x="1072" y="158" type="line"/>
      <point x="1072" y="-290" type="line"/>
    </contour>
  </outline>
</glyph>
<glyph name="Zhe.bgr" format="2">
  <advance width="1302"/>
  <outline>
    <contour>
      <point x="-20" y="0" type="line"/>
      <point x="426" y="843" type="line"/>
      <point x="432" y="839" type="line"/>
      <point x="-12" y="0" type="line"/>
    </contour>
    <contour>
      <point x="648" y="0" type="line"/>
      <point x="648" y="1456" type="line"/>
      <point x="655" y="1456" type="line"/>
      <point x="655" y="0" type="line"/>
    </contour>
    <contour>
      <point x="1314" y="0" type="line"/>
      <point x="870" y="839" type="line"/>
      <point x="876" y="843" type="line"/>
      <point x="1322" y="0" type="line"/>
    </contour>
    <contour>
      <point x="20" y="1456" type="line"/>
      <point x="28" y="1456" type="line"/>
      <point x="652" y="510" type="line"/>
      <point x="652" y="498" type="line"/>
    </contour>
    <contour>
      <point x="1274" y="1456" type="line"/>
      <point x="1282" y="1456" type="line"/>
      <point x="652" y="498" type="line"/>
      <point x="652" y="510" type="line"/>
    </contour>
  </outline>
</glyph>
<glyph name="acutecomb-stack.case" format="2">
  <anchor x="0" y="1456" name="_top"/>
  <anchor x="0" y="1861" name="top"/>
  <anchor x="0" y="1456" name="_topright"/>
  <outline>
    <contour>
      <point x="-131" y="1707" type="line"/>
      <point x="224" y="1860" type="line"/>
      <point x="229" y="1853" type="line"/>
      <point x="-49" y="1597" type="line"/>
    </contour>
  </outline>
</glyph>
<glyph name="acutecomb.case" format="2">
  <anchor x="0" y="1456" name="_top"/>
  <anchor x="0" y="1998" name="top"/>
  <outline>
    <contour>
      <point x="-102" y="1675" type="line"/>
      <point x="161" y="1930" type="line"/>
      <point x="168" y="1925" type="line"/>
      <point x="10" y="1600" type="line"/>
    </contour>
  </outline>
</glyph>
<glyph name="breve.cyrcomb.case" format="2">
  <anchor x="0" y="1456" name="_top"/>
  <anchor x="0" y="1939" name="top"/>
  <outline>
    <contour>
      <point x="0" y="1607" type="qcurve" smooth="yes"/>
      <point x="72" y="1607"/>
      <point x="193" y="1779"/>
      <point x="233" y="1939" type="qcurve"/>
      <point x="382" y="1849" type="line"/>
      <point x="325" y="1716"/>
      <point x="124" y="1600"/>
      <point x="0" y="1600" type="qcurve" smooth="yes"/>
      <point x="-124" y="1600"/>
      <point x="-326" y="1716"/>
      <point x="-382" y="1849" type="qcurve"/>
      <point x="-233" y="1939" type="line"/>
      <point x="-194" y="1779"/>
      <point x="-73" y="1607"/>
    </contour>
  </outline>
</glyph>
<glyph name="brevecomb-stack.case" format="2">
  <anchor x="0" y="1456" name="_top"/>
  <anchor x="0" y="1828" name="top"/>
  <outline>
    <contour>
      <point x="262" y="1897" type="qcurve"/>
      <point x="365" y="1831" type="line"/>
      <point x="328" y="1744"/>
      <point x="137" y="1597"/>
      <point x="0" y="1597" type="qcurve" smooth="yes"/>
      <point x="-122" y="1597"/>
      <point x="-318" y="1732"/>
      <point x="-364" y="1832" type="qcurve"/>
      <point x="-254" y="1897" type="line"/>
      <point x="-215" y="1783"/>
      <point x="-85" y="1604"/>
      <point x="0" y="1604" type="qcurve" smooth="yes"/>
      <point x="92" y="1604"/>
      <point x="223" y="1775"/>
    </contour>
  </outline>
</glyph>
<glyph name="caroncomb-stack.case" format="2">
  <anchor x="0" y="1456" name="_top"/>
  <anchor x="0" y="1900" name="top"/>
  <outline>
    <contour>
      <point x="-4" y="1590" type="line"/>
      <point x="-333" y="1900" type="line"/>
      <point x="-166" y="1900" type="line"/>
      <point x="0" y="1594" type="line"/>
      <point x="160" y="1900" type="line"/>
      <point x="333" y="1900" type="line"/>
      <point x="4" y="1590" type="line"/>
    </contour>
  </outline>
</glyph>
<glyph name="circumflexcomb-stack.case" format="2">
  <anchor x="0" y="1456" name="_top"/>
  <anchor x="0" y="1862" name="top"/>
  <anchor x="412" y="1602" name="topright"/>
  <outline>
    <contour>
      <point x="3" y="1892" type="line"/>
      <point x="332" y="1602" type="line"/>
      <point x="168" y="1602" type="line"/>
      <point x="0" y="1888" type="line"/>
      <point x="-166" y="1602" type="line"/>
      <point x="-334" y="1602" type="line"/>
      <point x="-3" y="1892" type="line"/>
    </contour>
  </outline>
</glyph>
<glyph name="dieresiscomb-stack.case" format="2">
  <anchor x="0" y="1456" name="_top"/>
  <anchor x="0" y="1622" name="top"/>
  <outline>
    <contour>
      <point x="-149" y="1613" type="qcurve" smooth="yes"/>
      <point x="-149" y="1617"/>
      <point x="-144" y="1622"/>
      <point x="-140" y="1622" type="qcurve" smooth="yes"/>
      <point x="-136" y="1622"/>
      <point x="-131" y="1617"/>
      <point x="-131" y="1613" type="qcurve" smooth="yes"/>
      <point x="-131" y="1609"/>
      <point x="-136" y="1604"/>
      <point x="-140" y="1604" type="qcurve" smooth="yes"/>
      <point x="-144" y="1604"/>
      <point x="-149" y="1609"/>
    </contour>
    <contour>
      <point x="131" y="1613" type="qcurve" smooth="yes"/>
      <point x="131" y="1617"/>
      <point x="136" y="1622"/>
      <point x="140" y="1622" type="qcurve" smooth="yes"/>
      <point x="144" y="1622"/>
      <point x="149" y="1617"/>
      <point x="149" y="1613" type="qcurve" smooth="yes"/>
      <point x="149" y="1609"/>
      <point x="144" y="1604"/>
      <point x="140" y="1604" type="qcurve" smooth="yes"/>
      <point x="136" y="1604"/>
      <point x="131" y="1609"/>
    </contour>
  </outline>
</glyph>
<glyph name="dieresiscomb.case" format="2">
  <anchor x="0" y="1456" name="_top"/>
  <anchor x="0" y="1724" name="top"/>
  <outline>
    <contour>
      <point x="-166" y="1699" type="qcurve" smooth="yes"/>
      <point x="-166" y="1711"/>
      <point x="-152" y="1724"/>
      <point x="-140" y="1724" type="qcurve" smooth="yes"/>
      <point x="-128" y="1724"/>
      <point x="-114" y="1710"/>
      <point x="-114" y="1699" type="qcurve" smooth="yes"/>
      <point x="-114" y="1687"/>
      <point x="-127" y="1674"/>
      <point x="-140" y="1674" type="qcurve" smooth="yes"/>
      <point x="-152" y="1674"/>
      <point x="-166" y="1688"/>
    </contour>
    <contour>
      <point x="114" y="1699" type="qcurve" smooth="yes"/>
      <point x="114" y="1711"/>
      <point x="128" y="1724"/>
      <point x="140" y="1724" type="qcurve" smooth="yes"/>
      <point x="152" y="1724"/>
      <point x="166" y="1710"/>
      <point x="166" y="1699" type="qcurve" smooth="yes"/>
      <point x="166" y="1687"/>
      <point x="153" y="1674"/>
      <point x="140" y="1674" type="qcurve" smooth="yes"/>
      <point x="128" y="1674"/>
      <point x="114" y="1688"/>
    </contour>
  </outline>
</glyph>
<glyph name="dieresiscombstack.case" format="2">
  <anchor x="0" y="1536" name="_top"/>
  <anchor x="0" y="1662" name="top"/>
  <outline>
    <contour>
      <point x="-254" y="1638" type="qcurve" smooth="yes"/>
      <point x="-254" y="1649"/>
      <point x="-242" y="1662"/>
      <point x="-230" y="1662" type="qcurve" smooth="yes"/>
      <point x="-219" y="1662"/>
      <point x="-206" y="1648"/>
      <point x="-206" y="1638" type="qcurve" smooth="yes"/>
      <point x="-206" y="1626"/>
      <point x="-218" y="1614"/>
      <point x="-230" y="1614" type="qcurve" smooth="yes"/>
      <point x="-241" y="1614"/>
      <point x="-254" y="1627"/>
    </contour>
    <contour>
      <point x="206" y="1638" type="qcurve" smooth="yes"/>
      <point x="206" y="1649"/>
      <point x="218" y="1662"/>
      <point x="230" y="1662" type="qcurve" smooth="yes"/>
      <point x="241" y="1662"/>
      <point x="254" y="1648"/>
      <point x="254" y="1638" type="qcurve" smooth="yes"/>
      <point x="254" y="1626"/>
      <point x="242" y="1614"/>
      <point x="230" y="1614" type="qcurve" smooth="yes"/>
      <point x="219" y="1614"/>
      <point x="206" y="1627"/>
    </contour>
  </outline>
</glyph>
<glyph name="dieresistonoscomb.case" format="2">
  <outline>
    <contour>
      <point x="-244" y="1569" type="qcurve" smooth="yes"/>
      <point x="-244" y="1581"/>
      <point x="-230" y="1594"/>
      <point x="-218" y="1594" type="qcurve" smooth="yes"/>
      <point x="-206" y="1594"/>
      <point x="-192" y="1580"/>
      <point x="-192" y="1569" type="qcurve" smooth="yes"/>
      <point x="-192" y="1557"/>
      <point x="-205" y="1544"/>
      <point x="-218" y="1544" type="qcurve" smooth="yes"/>
      <point x="-230" y="1544"/>
      <point x="-244" y="1558"/>
    </contour>
    <contour>
      <point x="51" y="1524" type="line"/>
      <point x="-65" y="1532" type="line"/>
      <point x="30" y="1869" type="line"/>
      <point x="37" y="1869" type="line"/>
    </contour>
    <contour>
      <point x="216" y="1569" type="qcurve" smooth="yes"/>
      <point x="216" y="1581"/>
      <point x="230" y="1594"/>
      <point x="242" y="1594" type="qcurve" smooth="yes"/>
      <point x="254" y="1594"/>
      <point x="268" y="1580"/>
      <point x="268" y="1569" type="qcurve" smooth="yes"/>
      <point x="268" y="1557"/>
      <point x="255" y="1544"/>
      <point x="242" y="1544" type="qcurve" smooth="yes"/>
      <point x="230" y="1544"/>
      <point x="216" y="1558"/>
    </contour>
  </outline>
</glyph>
<glyph name="dotaccentcombstack.case" format="2">
  <anchor x="0" y="1536" name="_top"/>
  <anchor x="0" y="1836" name="top"/>
  <outline>
    <contour>
      <point x="-23" y="1636" type="qcurve" smooth="yes"/>
      <point x="-23" y="1646"/>
      <point x="-11" y="1658"/>
      <point x="0" y="1658" type="qcurve" smooth="yes"/>
      <point x="11" y="1658"/>
      <point x="23" y="1646"/>
      <point x="23" y="1636" type="qcurve" smooth="yes"/>
      <point x="23" y="1627"/>
      <point x="11" y="1614"/>
      <point x="0" y="1614" type="qcurve" smooth="yes"/>
      <point x="-11" y="1614"/>
      <point x="-23" y="1627"/>
    </contour>
  </outline>
</glyph>
<glyph name="gravecombstack.case" format="2">
  <anchor x="0" y="1536" name="_top"/>
  <anchor x="0" y="1838" name="top"/>
  <outline>
    <contour>
      <point x="128" y="1570" type="line"/>
      <point x="-204" y="1835" type="line"/>
      <point x="-200" y="1841" type="line"/>
      <point x="206" y="1686" type="line"/>
    </contour>
  </outline>
</glyph>
<glyph name="hookabovecomb.case" format="2">
  <anchor x="0" y="1456" name="_top"/>
  <anchor x="0" y="2072" name="top"/>
  <outline>
    <contour>
      <point x="-82" y="1600" type="line"/>
      <point x="-82" y="1639" type="line" smooth="yes"/>
      <point x="-82" y="1691"/>
      <point x="-80" y="1694"/>
      <point x="-34" y="1699" type="qcurve"/>
      <point x="120" y="1718"/>
      <point x="209" y="1796"/>
      <point x="209" y="1862" type="qcurve" smooth="yes"/>
      <point x="209" y="1937"/>
      <point x="114" y="2024"/>
      <point x="-7" y="2024" type="qcurve" smooth="yes"/>
      <point x="-87" y="2024"/>
      <point x="-225" y="1985"/>
      <point x="-257" y="1965" type="qcurve"/>
      <point x="-260" y="1972" type="line"/>
      <point x="-225" y="1991"/>
      <point x="-88" y="2031"/>
      <point x="-7" y="2031" type="qcurve" smooth="yes"/>
      <point x="116" y="2031"/>
      <point x="216" y="1941"/>
      <point x="216" y="1862" type="qcurve" smooth="yes"/>
      <point x="216" y="1796"/>
      <point x="124" y="1710"/>
      <point x="-75" y="1688" type="qcurve"/>
      <point x="-75" y="1600" type="line"/>
    </contour>
  </outline>
</glyph>
<glyph name="ogonekcomb.case" format="2">
  <anchor x="50" y="0" name="_ogonek"/>
  <anchor x="-1" y="-497" name="bottom"/>
  <outline>
    <contour>
      <point x="-137" y="-264" type="qcurve" smooth="yes"/>
      <point x="-137" y="-217"/>
      <point x="-102" y="-53"/>
      <point x="-45" y="51" type="qcurve"/>
      <point x="50" y="0" type="line"/>
      <point x="-56" y="-99"/>
      <point x="-129" y="-199"/>
      <point x="-129" y="-244" type="qcurve" smooth="yes"/>
      <point x="-129" y="-292"/>
      <point x="-74" y="-347"/>
      <point x="-22" y="-347" type="qcurve" smooth="yes"/>
      <point x="25" y="-347"/>
      <point x="157" y="-301"/>
      <point x="219" y="-254" type="qcurve"/>
      <point x="276" y="-357" type="line"/>
      <point x="244" y="-418"/>
      <point x="121" y="-497"/>
      <point x="48" y="-497" type="qcurve" smooth="yes"/>
      <point x="-26" y="-497"/>
      <point x="-137" y="-384"/>
    </contour>
  </outline>
</glyph>
<glyph name="ringcomb-stack.case" format="2">
  <anchor x="0" y="1456" name="_top"/>
  <anchor x="0" y="1867" name="top"/>
  <outline>
    <contour>
      <point x="-132" y="1787" type="qcurve" smooth="yes"/>
      <point x="-132" y="1845"/>
      <point x="-58" y="1919"/>
      <point x="0" y="1919" type="qcurve" smooth="yes"/>
      <point x="58" y="1919"/>
      <point x="132" y="1845"/>
      <point x="132" y="1787" type="qcurve" smooth="yes"/>
      <point x="132" y="1729"/>
      <point x="58" y="1655"/>
      <point x="0" y="1655" type="qcurve" smooth="yes"/>
      <point x="-58" y="1655"/>
      <point x="-132" y="1729"/>
    </contour>
    <contour>
      <point x="-125" y="1787" type="qcurve" smooth="yes"/>
      <point x="-125" y="1732"/>
      <point x="-55" y="1662"/>
      <point x="0" y="1662" type="qcurve" smooth="yes"/>
      <point x="55" y="1662"/>
      <point x="125" y="1732"/>
      <point x="125" y="1787" type="qcurve" smooth="yes"/>
      <point x="125" y="1842"/>
      <point x="55" y="1912"/>
      <point x="0" y="1912" type="qcurve" smooth="yes"/>
      <point x="-55" y="1912"/>
      <point x="-125" y="1842"/>
    </contour>
  </outline>
</glyph>
<glyph name="ringcomb.case" format="2">
  <anchor x="0" y="1456" name="_top"/>
  <anchor x="0" y="1835" name="top"/>
  <outline>
    <contour>
      <point x="-117" y="1717" type="qcurve" smooth="yes"/>
      <point x="-117" y="1768"/>
      <point x="-51" y="1835"/>
      <point x="0" y="1835" type="qcurve" smooth="yes"/>
      <point x="51" y="1835"/>
      <point x="117" y="1768"/>
      <point x="117" y="1717" type="qcurve" smooth="yes"/>
      <point x="117" y="1666"/>
      <point x="51" y="1600"/>
      <point x="0" y="1600" type="qcurve" smooth="yes"/>
      <point x="-51" y="1600"/>
      <point x="-117" y="1666"/>
    </contour>
    <contour>
      <point x="-110" y="1717" type="qcurve" smooth="yes"/>
      <point x="-110" y="1669"/>
      <point x="-48" y="1607"/>
      <point x="0" y="1607" type="qcurve" smooth="yes"/>
      <point x="48" y="1607"/>
      <point x="110" y="1669"/>
      <point x="110" y="1717" type="qcurve" smooth="yes"/>
      <point x="110" y="1765"/>
      <point x="48" y="1828"/>
      <point x="0" y="1828" type="qcurve" smooth="yes"/>
      <point x="-48" y="1828"/>
      <point x="-110" y="1765"/>
    </contour>
  </outline>
</glyph>
<glyph name="tildecomb-stack.case" format="2">
  <anchor x="0" y="1456" name="_top"/>
  <anchor x="0" y="1835" name="top"/>
  <outline>
    <contour>
      <point x="-298" y="1666" type="line"/>
      <point x="-276" y="1725"/>
      <point x="-188" y="1797"/>
      <point x="-138" y="1797" type="qcurve" smooth="yes"/>
      <point x="-102" y="1797"/>
      <point x="-30" y="1764"/>
      <point x="9" y="1733" type="qcurve" smooth="yes"/>
      <point x="40" y="1708"/>
      <point x="108" y="1665"/>
      <point x="150" y="1665" type="qcurve" smooth="yes"/>
      <point x="205" y="1665"/>
      <point x="271" y="1724"/>
      <point x="289" y="1795" type="qcurve"/>
      <point x="292" y="1792" type="line"/>
      <point x="275" y="1721"/>
      <point x="206" y="1658"/>
      <point x="150" y="1658" type="qcurve" smooth="yes"/>
      <point x="105" y="1658"/>
      <point x="37" y="1702"/>
      <point x="5" y="1727" type="qcurve" smooth="yes"/>
      <point x="-30" y="1754"/>
      <point x="-103" y="1790"/>
      <point x="-138" y="1790" type="qcurve" smooth="yes"/>
      <point x="-187" y="1790"/>
      <point x="-274" y="1719"/>
      <point x="-295" y="1662" type="qcurve"/>
    </contour>
  </outline>
</glyph>
<glyph name="tildecomb.case" format="2">
  <anchor x="0" y="1456" name="_top"/>
  <anchor x="0" y="1892" name="top"/>
  <outline>
    <contour>
      <point x="-312" y="1682" type="line"/>
      <point x="-289" y="1745"/>
      <point x="-211" y="1818"/>
      <point x="-151" y="1818" type="qcurve" smooth="yes"/>
      <point x="-105" y="1818"/>
      <point x="-33" y="1779"/>
      <point x="9" y="1754" type="qcurve" smooth="yes"/>
      <point x="43" y="1734"/>
      <point x="131" y="1686"/>
      <point x="174" y="1686" type="qcurve" smooth="yes"/>
      <point x="228" y="1686"/>
      <point x="304" y="1745"/>
      <point x="322" y="1816" type="qcurve"/>
      <point x="325" y="1813" type="line"/>
      <point x="308" y="1742"/>
      <point x="232" y="1679"/>
      <point x="174" y="1679" type="qcurve" smooth="yes"/>
      <point x="128" y="1679"/>
      <point x="38" y="1728"/>
      <point x="5" y="1748" type="qcurve" smooth="yes"/>
      <point x="-30" y="1769"/>
      <point x="-108" y="1811"/>
      <point x="-151" y="1811" type="qcurve" smooth="yes"/>
      <point x="-210" y="1811"/>
      <point x="-287" y="1740"/>
      <point x="-309" y="1679" type="qcurve"/>
    </contour>
  </outline>
</glyph>
